<svg width="32" height="32" viewBox="0 0 32 32" fill="none" xmlns="http://www.w3.org/2000/svg">
<g clip-path="url(#clip0_50_777)">
<path d="M12.772 12.7641C12.772 11.5001 11.7933 11.2001 10.7067 11.2001H7.87866V14.4001H10.928C12.0067 14.4001 12.772 13.9281 12.772 12.7641Z" fill="#FEFFED"/>
<path d="M22.2213 14.4214C20.9146 14.4214 20.0426 15.2361 19.9573 16.5427H24.3999C24.2786 15.2214 23.5933 14.4214 22.2213 14.4214Z" fill="#FEFFED"/>
<path d="M11.1573 16.6787H7.87195V20.4574H11.0933C12.3226 20.4574 13.3226 20.0214 13.3226 18.6427C13.3213 17.236 12.4853 16.6854 11.1573 16.6787Z" fill="#FEFFED"/>
<path d="M26.3333 0.400024H5.66667C2.53333 0.400024 0 2.93336 0 6.06669V25.9334C0 29.0667 2.53333 31.6 5.66667 31.6H26.3333C29.4667 31.6 32 29.0667 32 25.9334V6.06669C32 2.93336 29.4667 0.400024 26.3333 0.400024ZM19.4067 9.57869H24.964V10.928H19.4067V9.57869ZM11.5067 22.8H4.85733V9.08536H11.3213C13.672 9.08536 15.7067 9.74936 15.7067 12.4774C15.7067 13.856 15.064 14.5347 13.8347 15.12C15.52 15.5987 16.3347 17.0854 16.3347 18.8067C16.336 21.5934 14 22.7854 11.5067 22.8ZM27.1213 18.264H19.964C19.964 19.8494 20.8 20.7854 22.4 20.7854C23.228 20.7854 24.2933 20.3427 24.5573 19.492H26.964C26.2213 21.7707 24.6853 22.8347 22.3147 22.8347C19.1867 22.8347 17.236 20.7134 17.236 17.62C17.236 14.6347 19.2867 12.364 22.3147 12.364C25.4213 12.364 27.1427 14.8134 27.1427 17.7494C27.1427 17.9214 27.128 18.1 27.1213 18.264Z" fill="#FEFFED"/>
</g>
<defs>
<clipPath id="clip0_50_777">
<rect width="32" height="32" fill="white"/>
</clipPath>
</defs>
</svg>
