<svg width="32" height="32" viewBox="0 0 32 32" fill="none" xmlns="http://www.w3.org/2000/svg">
<g clip-path="url(#clip0_50_793)">
<path fill-rule="evenodd" clip-rule="evenodd" d="M16 0.394653C7.164 0.394653 0 7.55732 0 16.3947C0 23.464 4.584 29.4613 10.9413 31.5773C11.7413 31.7253 12.0347 31.2307 12.0347 30.808C12.0347 30.4267 12.02 29.1667 12.0133 27.8293C7.56267 28.7973 6.62267 25.9413 6.62267 25.9413C5.89467 24.092 4.84667 23.6 4.84667 23.6C3.39467 22.6067 4.956 22.628 4.956 22.628C6.56267 22.7413 7.408 24.2773 7.408 24.2773C8.83467 26.7227 11.1507 26.016 12.064 25.6067C12.208 24.572 12.6227 23.8667 13.08 23.4667C9.52667 23.0627 5.79067 21.6907 5.79067 15.56C5.79067 13.8133 6.416 12.3853 7.44 11.2653C7.27333 10.8613 6.72533 9.23465 7.59467 7.03065C7.59467 7.03065 8.93867 6.60132 11.996 8.67065C13.272 8.31599 14.64 8.13865 16 8.13199C17.36 8.13865 18.7293 8.31599 20.008 8.67065C23.0613 6.59999 24.404 7.03065 24.404 7.03065C25.2747 9.23465 24.7267 10.8613 24.5613 11.2653C25.5867 12.3853 26.208 13.8133 26.208 15.56C26.208 21.7053 22.4653 23.0587 18.9027 23.4547C19.476 23.9507 19.988 24.9253 19.988 26.4173C19.988 28.5587 19.9693 30.2813 19.9693 30.808C19.9693 31.2333 20.2573 31.7333 21.068 31.576C27.4227 29.4573 32.0013 23.4627 32.0013 16.396C32 7.55865 24.836 0.394653 16 0.394653Z" fill="#FEFFED"/>
<path d="M6.06004 23.368C6.02538 23.448 5.90004 23.472 5.78538 23.4173C5.66938 23.3653 5.60404 23.256 5.64138 23.1773C5.67604 23.096 5.80138 23.0733 5.91738 23.128C6.03338 23.1787 6.10004 23.288 6.06004 23.368Z" fill="#FEFFED"/>
<path d="M6.70804 24.0906C6.63204 24.1613 6.4827 24.1279 6.38137 24.0173C6.27604 23.9053 6.25737 23.7559 6.3347 23.6853C6.41337 23.6146 6.55737 23.6479 6.6627 23.7599C6.76804 23.8706 6.78804 24.0186 6.70804 24.0906Z" fill="#FEFFED"/>
<path d="M7.33872 25.012C7.24005 25.08 7.08005 25.016 6.98138 24.8747C6.88272 24.732 6.88272 24.5614 6.98405 24.4934C7.08272 24.4254 7.24138 24.4867 7.34138 24.628C7.43872 24.772 7.43872 24.9427 7.33872 25.012Z" fill="#FEFFED"/>
<path d="M8.2026 25.9027C8.1146 26 7.92794 25.9733 7.79194 25.8413C7.65194 25.712 7.61327 25.5293 7.70127 25.432C7.7906 25.3347 7.9786 25.3627 8.11594 25.4933C8.2546 25.6227 8.29594 25.8067 8.2026 25.9027Z" fill="#FEFFED"/>
<path d="M9.3961 26.4187C9.35743 26.544 9.17743 26.6013 8.9961 26.548C8.81477 26.4933 8.6961 26.3467 8.73343 26.22C8.77077 26.0933 8.9521 26.0347 9.13477 26.092C9.31477 26.1453 9.43343 26.292 9.3961 26.4187Z" fill="#FEFFED"/>
<path d="M10.7053 26.5147C10.7093 26.6467 10.556 26.756 10.3653 26.7587C10.1747 26.7627 10.0187 26.656 10.0173 26.5267C10.0173 26.3934 10.168 26.2854 10.3587 26.2814C10.5493 26.2774 10.7053 26.384 10.7053 26.5147Z" fill="#FEFFED"/>
<path d="M11.9239 26.308C11.9466 26.436 11.8146 26.5693 11.6253 26.604C11.4399 26.6387 11.2679 26.5587 11.2439 26.4307C11.2213 26.2987 11.3559 26.1667 11.5413 26.132C11.7293 26.0987 11.8999 26.176 11.9239 26.308Z" fill="#FEFFED"/>
</g>
<defs>
<clipPath id="clip0_50_793">
<rect width="32" height="32" fill="white"/>
</clipPath>
</defs>
</svg>
